<?xml version="1.0" encoding="utf-8"?>
<!-- Generator: Adobe Illustrator 19.1.0, SVG Export Plug-In . SVG Version: 6.00 Build 0)  -->
<svg version="1.1" id="Layer_1" xmlns="http://www.w3.org/2000/svg" xmlns:xlink="http://www.w3.org/1999/xlink" x="0px" y="0px"
	 viewBox="-143 269.6 325 254.4" style="enable-background:new -143 269.6 325 254.4;" xml:space="preserve">
<desc>ROC 曲线中的一条曲线显示了不同分类阈值下的 TP 率与 FP 率。</desc>
<style type="text/css">
	.zhroc-st0{fill:none;}
	.zhroc-st1{fill:none;stroke:#424242;stroke-width:3;stroke-linejoin:round;stroke-miterlimit:14.3356;}
	.zhroc-st2{fill-opacity:0;}
	.zhroc-st3{fill:none;stroke:#1155CC;stroke-width:3;stroke-linejoin:round;stroke-miterlimit:14.3356;stroke-dasharray:12,9;}
	.zhroc-st4{font-family:'PingFangTC-Medium-B5pc-H';}
	.zhroc-st5{font-size:11px;}
	.zhroc-st6{font-family:'Arial-BoldMT';}
	.zhroc-st7{fill:#FFF2CC;}
	.zhroc-st8{fill:none;stroke:#424242;stroke-width:0.75;stroke-linejoin:round;stroke-miterlimit:14.3356;}
	.zhroc-st9{enable-background:new    ;}
</style>
<line class="zhroc-st0" x1="-110.1" y1="279.1" x2="-110.1" y2="497.7"/>
<line class="zhroc-st1" x1="-110.1" y1="279.1" x2="-110.1" y2="497.7"/>
<line class="zhroc-st0" x1="-110.1" y1="497.7" x2="156.4" y2="497.7"/>
<line class="zhroc-st1" x1="-110.1" y1="497.7" x2="156.4" y2="497.7"/>
<path class="zhroc-st2" d="M-110.1,497.2c1.4-7.7,3.2-29.6,8.3-46.3c5.1-16.7,14.3-40.3,22.3-53.9c8-13.6,15.4-18.6,25.9-27.7
	c10.5-9.1,25.4-18.4,37.3-27.2S8.2,323,17.9,316.4c9.8-6.6,13.6-9.2,24.4-14.1c10.8-4.9,21.4-11.5,40.4-15.1
	c19-3.6,61.3-5.5,73.6-6.5"/>
<path class="zhroc-st3" d="M-110.1,497.2c1.4-7.7,3.2-29.6,8.3-46.3c5.1-16.7,14.3-40.3,22.3-53.9c8-13.6,15.4-18.6,25.9-27.7
	c10.5-9.1,25.4-18.4,37.3-27.2S8.2,323,17.9,316.4c9.8-6.6,13.6-9.2,24.4-14.1c10.8-4.9,21.4-11.5,40.4-15.1
	c19-3.6,61.3-5.5,73.6-6.5"/>
<text transform="matrix(1 0 0 1 9.0373 513.5912)" class="zhroc-st4 zhroc-st5">FP 率</text>
<text transform="matrix(0 -1 1 0 -125.6898 402.705)" class="zhroc-st4 zhroc-st5">TP 率</text>
<rect x="-143" y="269.6" class="zhroc-st2" width="27.7" height="22"/>
<text transform="matrix(0 -1 1 0 -125.6899 284.8432)" class="zhroc-st6 zhroc-st5">1</text>
<rect x="-143" y="485.6" class="zhroc-st2" width="27.7" height="22"/>
<text transform="matrix(0 -1 1 0 -125.6899 500.8432)" class="zhroc-st6 zhroc-st5">0</text>
<rect x="-122.1" y="500.7" class="zhroc-st2" width="22" height="27.7"/>
<text transform="matrix(1 0 0 1 -115.3917 518.0511)" class="zhroc-st6 zhroc-st5">0</text>
<rect x="141.9" y="500.7" class="zhroc-st2" width="22" height="27.7"/>
<text transform="matrix(1 0 0 1 148.6085 518.0511)" class="zhroc-st6 zhroc-st5">1</text>
<path class="zhroc-st7" d="M-52.9,401.3L-52.9,401.3c0-4.6,3.7-8.3,8.3-8.3h11.9h30.4h62.7c2.2,0,4.3,0.9,5.9,2.4c1.6,1.6,2.4,3.7,2.4,5.9
	v12.5v20.9c0,4.6-3.7,8.3-8.3,8.3H-2.3h-30.4h-11.9c-4.6,0-8.3-3.7-8.3-8.3v-20.9l-20.9-19.5L-52.9,401.3z"/>
<path class="zhroc-st8" d="M-52.9,401.3L-52.9,401.3c0-4.6,3.7-8.3,8.3-8.3h11.9h30.4h62.7c2.2,0,4.3,0.9,5.9,2.4c1.6,1.6,2.4,3.7,2.4,5.9
	v12.5v20.9c0,4.6-3.7,8.3-8.3,8.3H-2.3h-30.4h-11.9c-4.6,0-8.3-3.7-8.3-8.3v-20.9l-20.9-19.5L-52.9,401.3z"/>
<path class="zhroc-st7" d="M64.4,312.9L64.4,312.9c0-5.2,4.3-9.5,9.5-9.5h9.6l-4.8-12.1l33.4,12.1h57.2c2.5,0,4.9,1,6.7,2.8
	c1.8,1.8,2.8,4.2,2.8,6.7v14.3V351c0,5.2-4.3,9.5-9.5,9.5h-57.2H83.5h-9.6c-5.2,0-9.5-4.3-9.5-9.5v-23.8L64.4,312.9L64.4,312.9z"/>
<path class="zhroc-st8" d="M64.4,312.9L64.4,312.9c0-5.2,4.3-9.5,9.5-9.5h9.6l-4.8-12.1l33.4,12.1h57.2c2.5,0,4.9,1,6.7,2.8
	c1.8,1.8,2.8,4.2,2.8,6.7v14.3V351c0,5.2-4.3,9.5-9.5,9.5h-57.2H83.5h-9.6c-5.2,0-9.5-4.3-9.5-9.5v-23.8L64.4,312.9L64.4,312.9z"/>
<rect x="73.9" y="315.5" class="zhroc-st0" width="95.6" height="77.5"/>
<text transform="matrix(1 0 0 1 77.9384 329.348)" class="zhroc-st9"><tspan x="0" y="0" class="zhroc-st4 zhroc-st5">特定判定阈值下的 </tspan><tspan x="0" y="13.2" class="zhroc-st4 zhroc-st5">TP 率与 FP 率</tspan></text>
<rect x="-43.7" y="401.6" class="zhroc-st0" width="103" height="58.5"/>
<text transform="matrix(1 0 0 1 -42.7421 415.476)" class="zhroc-st9"><tspan x="0" y="0" class="zhroc-st4 zhroc-st5">另一个判定阈值下的 </tspan><tspan x="0" y="13.2" class="zhroc-st4 zhroc-st5">TP 率与 FP 率</tspan></text>
</svg>
